<svg width="660" height="660" viewBox="0 0 660 660" fill="none" xmlns="http://www.w3.org/2000/svg">
<path d="M329.79 0C511.93 0 659.58 147.65 659.58 329.79C659.58 511.93 511.93 659.58 329.79 659.58C147.65 659.58 0 511.93 0 329.79C0 147.65 147.65 0 329.79 0Z" fill="#99FF00"/>
<path d="M281.389 216.763H379.229C403.879 216.763 416.449 196.293 399.329 184.013L334.009 137.192C331.799 135.602 328.819 135.602 326.599 137.192L261.279 184.013C244.159 196.283 256.729 216.763 281.379 216.763H281.389Z" fill="white"/>
<path d="M515.709 146.283H505.709C487.449 146.283 470.579 158.542 461.539 178.402L433.679 239.543C433.589 239.543 433.509 239.522 433.429 239.522H228.659C228.089 239.522 227.529 239.603 226.969 239.633L199.149 178.452C190.109 158.572 173.229 146.293 154.959 146.293H144.929C105.329 146.293 80.929 200.442 101.409 242.862L237.369 524.462C246.579 543.532 263.089 555.192 280.889 555.192H379.579C397.369 555.192 413.869 543.553 423.089 524.493L559.239 242.892C579.749 200.472 555.349 146.283 515.729 146.283H515.709ZM333.369 459.712C332.809 460.952 331.569 461.743 330.209 461.743C328.849 461.743 327.609 460.942 327.049 459.702L283.799 364.582C281.889 360.372 284.959 355.592 289.589 355.592H370.939C375.569 355.592 378.639 360.372 376.719 364.582L333.379 459.702L333.369 459.712Z" fill="white"/>
</svg>
